<svg width="89" height="25" viewBox="0 0 89 25" fill="none" xmlns="http://www.w3.org/2000/svg">
<g clip-path="url(#clip0_84_31678)">
<path d="M1.08472 20.5V19.5272L4.36152 19.1432H4.77112V20.5H1.08472ZM3.13272 20.5C3.16684 19.6808 3.19244 18.8274 3.20952 17.94C3.22658 17.0525 3.23512 16.148 3.23512 15.2264C3.23512 14.3048 3.23512 13.4002 3.23512 12.5128V11.4632C3.23512 10.5757 3.23512 9.67974 3.23512 8.77518C3.23512 7.85358 3.22658 6.94904 3.20952 6.06158C3.19244 5.17411 3.16684 4.32078 3.13272 3.50158H6.38392C6.36684 4.30371 6.34978 5.14851 6.33272 6.03598C6.31565 6.92344 6.30712 7.82798 6.30712 8.74958C6.30712 9.65414 6.30712 10.5586 6.30712 11.4632V12.3336C6.30712 13.2722 6.30712 14.2194 6.30712 15.1752C6.30712 16.1138 6.31565 17.0269 6.33272 17.9144C6.34978 18.8018 6.36684 19.6637 6.38392 20.5H3.13272ZM4.71992 20.5V19.3736H7.51032C8.92681 19.3736 10.002 19.0664 10.7359 18.452C11.4698 17.8376 11.8367 16.9672 11.8367 15.8408C11.8367 14.612 11.4783 13.6989 10.7615 13.1016C10.0447 12.5042 8.92681 12.2056 7.40792 12.2056H4.71992V11.156H7.27992C8.16737 11.156 8.89273 11.028 9.45593 10.772C10.0191 10.516 10.4372 10.1405 10.7103 9.64558C11.0004 9.13358 11.1455 8.50214 11.1455 7.75118C11.1455 7.01731 11.009 6.41998 10.7359 5.95918C10.4799 5.49838 10.0959 5.15704 9.58393 4.93518C9.07193 4.71331 8.43193 4.60238 7.66391 4.60238H4.71992V3.50158H8.43193C9.74601 3.50158 10.8212 3.68078 11.6575 4.03918C12.4938 4.38051 13.1167 4.85838 13.5263 5.47278C13.9359 6.07011 14.1407 6.76131 14.1407 7.54638C14.1407 8.22904 13.9615 8.86902 13.6031 9.46638C13.2618 10.0466 12.7071 10.5416 11.9391 10.9512C11.1882 11.3437 10.1727 11.5912 8.89273 11.6936V11.4888C10.3092 11.557 11.4698 11.7874 12.3743 12.18C13.2788 12.5554 13.9444 13.0589 14.3711 13.6904C14.8148 14.3048 15.0367 15.013 15.0367 15.8152C15.0367 16.4125 14.9002 16.9928 14.6271 17.556C14.3711 18.1192 13.9615 18.6226 13.3983 19.0664C12.8351 19.5101 12.0927 19.86 11.1711 20.116C10.2666 20.372 9.17433 20.5 7.89432 20.5H4.71992ZM1.08472 4.47438V3.50158H4.77112V4.85838H4.36152L1.08472 4.47438ZM16.7067 20.5V19.6296L19.2155 19.1688H20.4187L22.8507 19.6296V20.5H16.7067ZM18.2939 20.5C18.328 20.1074 18.3451 19.5954 18.3451 18.964C18.3622 18.3154 18.3707 17.6498 18.3707 16.9672C18.3878 16.2674 18.3963 15.653 18.3963 15.124V13.972C18.3963 13.2552 18.3878 12.6578 18.3707 12.18C18.3707 11.685 18.3536 11.173 18.3195 10.644L16.5275 10.3624V9.56878L21.0075 8.08398L21.3659 8.33998L21.2891 11.8216V15.124C21.2891 15.653 21.2891 16.2674 21.2891 16.9672C21.3062 17.6498 21.3147 18.3154 21.3147 18.964C21.3318 19.5954 21.3488 20.1074 21.3659 20.5H18.2939ZM19.7531 5.80558C19.2411 5.80558 18.8059 5.64344 18.4475 5.31918C18.1062 4.99491 17.9355 4.57678 17.9355 4.06478C17.9355 3.55278 18.1062 3.13464 18.4475 2.81038C18.8059 2.48611 19.2411 2.32398 19.7531 2.32398C20.248 2.32398 20.6747 2.48611 21.0331 2.81038C21.3915 3.13464 21.5707 3.55278 21.5707 4.06478C21.5707 4.57678 21.3915 4.99491 21.0331 5.31918C20.6747 5.64344 20.248 5.80558 19.7531 5.80558ZM30.4257 20.8584C29.2993 20.8584 28.2839 20.6109 27.3793 20.116C26.4748 19.604 25.758 18.8701 25.2289 17.9144C24.6999 16.9586 24.4353 15.8152 24.4353 14.484C24.4353 13.1357 24.7084 11.9837 25.2545 11.028C25.8007 10.0722 26.526 9.34694 27.4305 8.85198C28.3351 8.33998 29.3335 8.08398 30.4257 8.08398C31.518 8.08398 32.5164 8.33144 33.4209 8.82638C34.3255 9.32134 35.0508 10.0466 35.5969 11.0024C36.1431 11.9581 36.4161 13.1101 36.4161 14.4584C36.4161 15.8066 36.1431 16.9586 35.5969 17.9144C35.0679 18.8701 34.3511 19.604 33.4465 20.116C32.542 20.6109 31.5351 20.8584 30.4257 20.8584ZM30.4257 19.8088C31.0231 19.8088 31.5351 19.621 31.9617 19.2456C32.3884 18.853 32.7127 18.2642 32.9345 17.4792C33.1564 16.6941 33.2673 15.6957 33.2673 14.484C33.2673 13.2552 33.1564 12.2482 32.9345 11.4632C32.7127 10.6781 32.3884 10.0978 31.9617 9.72238C31.5351 9.32982 31.0231 9.13358 30.4257 9.13358C29.8113 9.13358 29.2908 9.32982 28.8641 9.72238C28.4375 10.0978 28.1132 10.6866 27.8913 11.4888C27.6695 12.2738 27.5585 13.2808 27.5585 14.5096C27.5585 15.7042 27.6695 16.6941 27.8913 17.4792C28.1132 18.2642 28.4375 18.853 28.8641 19.2456C29.2908 19.621 29.8113 19.8088 30.4257 19.8088ZM38.1567 20.5V19.6296L40.7423 19.1688H42.2527L45.0175 19.6296V20.5H38.1567ZM39.8207 20.5C39.8548 19.9538 39.8719 19.3821 39.8719 18.7848C39.889 18.1704 39.8975 17.556 39.8975 16.9416C39.9146 16.3101 39.9231 15.7042 39.9231 15.124V9.72238H38.0543V8.64718L40.8447 8.26318L39.9231 8.87758L39.9487 8.49358C40.034 7.57198 40.1535 6.76984 40.3071 6.08718C40.4607 5.38744 40.6826 4.77304 40.9727 4.24398C41.2628 3.71491 41.6383 3.23704 42.0991 2.81038C42.6282 2.33251 43.1999 1.98264 43.8143 1.76078C44.4458 1.53891 45.0772 1.42798 45.7087 1.42798C46.3231 1.42798 46.8863 1.54744 47.3983 1.78638C47.9103 2.02531 48.2346 2.41784 48.3711 2.96398C48.354 3.33944 48.2004 3.65518 47.9103 3.91118C47.6202 4.15011 47.2362 4.26958 46.7583 4.26958C46.3999 4.26958 46.0586 4.17571 45.7343 3.98798C45.4271 3.80024 45.1028 3.49304 44.7615 3.06638L43.8655 2.17038V1.91438H45.2991V2.09358C44.9919 2.16184 44.7103 2.26424 44.4543 2.40078C44.2154 2.53731 43.9764 2.78478 43.7375 3.14318C43.5327 3.45038 43.362 3.78318 43.2255 4.14158C43.089 4.49998 42.978 4.91811 42.8927 5.39598C42.8244 5.85678 42.7818 6.41144 42.7647 7.05998C42.7476 7.69144 42.7647 8.44238 42.8159 9.31278V15.124C42.8159 15.7042 42.8159 16.3101 42.8159 16.9416C42.833 17.556 42.8415 18.1704 42.8415 18.7848C42.8586 19.3821 42.8756 19.9538 42.8927 20.5H39.8207ZM41.3567 9.72238V8.41678H45.8623V9.72238H41.3567ZM52.8757 20.8584C51.7493 20.8584 50.7339 20.6109 49.8293 20.116C48.9248 19.604 48.208 18.8701 47.6789 17.9144C47.1499 16.9586 46.8853 15.8152 46.8853 14.484C46.8853 13.1357 47.1584 11.9837 47.7045 11.028C48.2507 10.0722 48.976 9.34694 49.8805 8.85198C50.7851 8.33998 51.7835 8.08398 52.8757 8.08398C53.968 8.08398 54.9664 8.33144 55.8709 8.82638C56.7755 9.32134 57.5008 10.0466 58.0469 11.0024C58.5931 11.9581 58.8661 13.1101 58.8661 14.4584C58.8661 15.8066 58.5931 16.9586 58.0469 17.9144C57.5179 18.8701 56.8011 19.604 55.8965 20.116C54.992 20.6109 53.9851 20.8584 52.8757 20.8584ZM52.8757 19.8088C53.473 19.8088 53.9851 19.621 54.4117 19.2456C54.8384 18.853 55.1627 18.2642 55.3845 17.4792C55.6064 16.6941 55.7173 15.6957 55.7173 14.484C55.7173 13.2552 55.6064 12.2482 55.3845 11.4632C55.1627 10.6781 54.8384 10.0978 54.4117 9.72238C53.9851 9.32982 53.473 9.13358 52.8757 9.13358C52.2613 9.13358 51.7408 9.32982 51.3141 9.72238C50.8875 10.0978 50.5632 10.6866 50.3413 11.4888C50.1195 12.2738 50.0085 13.2808 50.0085 14.5096C50.0085 15.7042 50.1195 16.6941 50.3413 17.4792C50.5632 18.2642 50.8875 18.853 51.3141 19.2456C51.7408 19.621 52.2613 19.8088 52.8757 19.8088ZM60.3537 20.5V19.6296L62.9137 19.1688H64.1169L66.7281 19.6296V20.5H60.3537ZM62.0177 20.5C62.0519 19.9538 62.0689 19.3821 62.0689 18.7848C62.086 18.1704 62.0945 17.556 62.0945 16.9416C62.1116 16.3101 62.1201 15.7042 62.1201 15.124V3.93678L60.2769 3.62958V2.81038L64.7569 1.68398L65.1153 1.91438L65.0129 5.88238V15.124C65.0129 15.7042 65.0129 16.3101 65.0129 16.9416C65.03 17.556 65.0385 18.1704 65.0385 18.7848C65.0556 19.3821 65.0727 19.9538 65.0897 20.5H62.0177ZM68.1817 20.5V19.6296L70.6905 19.1688H71.8937L74.3257 19.6296V20.5H68.1817ZM69.7689 20.5C69.8031 20.1074 69.8201 19.5954 69.8201 18.964C69.8372 18.3154 69.8457 17.6498 69.8457 16.9672C69.8628 16.2674 69.8713 15.653 69.8713 15.124V13.972C69.8713 13.2552 69.8628 12.6578 69.8457 12.18C69.8457 11.685 69.8287 11.173 69.7945 10.644L68.0025 10.3624V9.56878L72.4825 8.08398L72.8409 8.33998L72.7641 11.8216V15.124C72.7641 15.653 72.7641 16.2674 72.7641 16.9672C72.7812 17.6498 72.7897 18.3154 72.7897 18.964C72.8068 19.5954 72.8239 20.1074 72.8409 20.5H69.7689ZM71.2281 5.80558C70.7161 5.80558 70.2809 5.64344 69.9225 5.31918C69.5812 4.99491 69.4105 4.57678 69.4105 4.06478C69.4105 3.55278 69.5812 3.13464 69.9225 2.81038C70.2809 2.48611 70.7161 2.32398 71.2281 2.32398C71.7231 2.32398 72.1497 2.48611 72.5081 2.81038C72.8665 3.13464 73.0457 3.55278 73.0457 4.06478C73.0457 4.57678 72.8665 4.99491 72.5081 5.31918C72.1497 5.64344 71.7231 5.80558 71.2281 5.80558ZM81.9008 20.8584C80.7744 20.8584 79.7588 20.6109 78.8543 20.116C77.9498 19.604 77.233 18.8701 76.7039 17.9144C76.1748 16.9586 75.9103 15.8152 75.9103 14.484C75.9103 13.1357 76.1834 11.9837 76.7295 11.028C77.2756 10.0722 78.001 9.34694 78.9055 8.85198C79.81 8.33998 80.8088 8.08398 81.9008 8.08398C82.9928 8.08398 83.9912 8.33144 84.896 8.82638C85.8008 9.32134 86.5256 10.0466 87.072 11.0024C87.6184 11.9581 87.8912 13.1101 87.8912 14.4584C87.8912 15.8066 87.6184 16.9586 87.072 17.9144C86.5432 18.8701 85.8264 19.604 84.9216 20.116C84.0168 20.6109 83.0104 20.8584 81.9008 20.8584ZM81.9008 19.8088C82.4984 19.8088 83.0104 19.621 83.4368 19.2456C83.8632 18.853 84.188 18.2642 84.4096 17.4792C84.6312 16.6941 84.7424 15.6957 84.7424 14.484C84.7424 13.2552 84.6312 12.2482 84.4096 11.4632C84.188 10.6781 83.8632 10.0978 83.4368 9.72238C83.0104 9.32982 82.4984 9.13358 81.9008 9.13358C81.2864 9.13358 80.7656 9.32982 80.3392 9.72238C79.9124 10.0978 79.5882 10.6866 79.3663 11.4888C79.1444 12.2738 79.0335 13.2808 79.0335 14.5096C79.0335 15.7042 79.1444 16.6941 79.3663 17.4792C79.5882 18.2642 79.9124 18.853 80.3392 19.2456C80.7656 19.621 81.2864 19.8088 81.9008 19.8088Z" fill="#020815"/>
<path d="M26.5 23.7H34.5" stroke="#818CF8" stroke-width="2" stroke-linecap="round"/>
<path d="M77.7 4.5H85.7" stroke="#7DD3FC" stroke-width="2" stroke-linecap="round"/>
</g>
<defs>
<clipPath id="clip0_84_31678">
<rect width="88.8" height="24" fill="white" transform="translate(0.0999756 0.5)"/>
</clipPath>
</defs>
</svg>
