<svg xmlns="http://www.w3.org/2000/svg" width="24" height="24" viewBox="0 0 24 24" fill="none">
  <path d="M0 4C0 1.79086 1.78793 0 3.99346 0H19.5065C21.7121 0 23.5 1.79086 23.5 4V20C23.5 22.2091 21.7121 24 19.5065 24H3.99346C1.78794 24 0 22.2091 0 20V4Z" fill="#0077B5"/>
  <path d="M16.5418 20.6262H20.0805V13.4776C20.0805 9.94706 17.9467 8.74288 15.9721 8.74288C14.1463 8.74288 12.906 9.95765 12.5636 10.6692V9.06775H9.16038V20.6262H12.6991V14.3596C12.6991 12.6887 13.7284 11.8761 14.7784 11.8761C15.7716 11.8761 16.5418 12.4506 16.5418 14.3132V20.6262Z" fill="white"/>
  <path d="M3.2251 5.3688C3.2251 6.57551 4.13849 7.45735 5.2652 7.45735C6.39207 7.45735 7.30547 6.57551 7.30547 5.3688C7.30547 4.16226 6.39207 3.27942 5.2652 3.27942C4.13849 3.27942 3.2251 4.16226 3.2251 5.3688Z" fill="white"/>
  <path d="M3.49595 20.6173H7.03446V9.05884H3.49595V20.6173Z" fill="white"/>
</svg>