<svg xmlns="http://www.w3.org/2000/svg" width="24" height="24" viewBox="0 0 24 24" fill="none">
  <circle cx="12" cy="12" r="12" fill="#105DFB"/>
  <path fill-rule="evenodd" clip-rule="evenodd" d="M5.15698 16.4696V7.30762H9.39244C10.7529 7.30762 11.8557 8.41047 11.8557 9.7709C11.8557 10.6354 11.5899 11.1709 10.6152 11.7203C11.7816 12.2517 12.1055 12.9883 12.1055 14.0156C12.1055 15.4054 10.8708 16.4696 9.48103 16.4696H5.15698ZM6.94924 8.82423V11.0274H9.0469C9.0469 11.0274 10.0664 11.0274 10.0664 9.9258C10.0664 8.82423 9.0469 8.82423 9.0469 8.82423H6.94924ZM6.94924 14.918V12.5391H9.19924C9.56252 12.5391 10.3242 12.7266 10.3242 13.8516C10.3242 14.686 9.57424 14.9102 9.19924 14.918H6.94924Z" fill="white"/>
  <path fill-rule="evenodd" clip-rule="evenodd" d="M15.9375 9.83205C14.6485 9.83205 12.7383 10.7578 12.7383 13.2188C12.7383 14.7173 13.5586 16.6406 16.0196 16.6406C17.9883 16.6406 18.8946 15.1953 19.1016 14.4727H17.25C17.1563 14.8008 16.793 15.1641 16.0196 15.1641C14.8946 15.1641 14.4961 14.2031 14.4375 13.7227H19.1016V13.2188C19.1016 10.7578 17.2266 9.83205 15.9375 9.83205ZM15.9375 11.2383C14.8875 11.2383 14.5 12.1055 14.4375 12.5391H17.25C17.25 12.1055 16.9875 11.2383 15.9375 11.2383Z" fill="white"/>
  <path d="M13.6992 7.82814V8.96486H18.1172V7.82814H13.6992Z" fill="white"/>
</svg>